HIERARCHY
ROOT Hips
{
	OFFSET 0.000000 0.000000 0.000000
	CHANNELS 6 Xposition Yposition Zposition Xrotation Yrotation Zrotation
	JOINT LeftUpLeg_virtual
	{
		OFFSET 0.000000 0.000000 0.000000
		CHANNELS 3 Xrotation Yrotation Zrotation
		JOINT LeftUpLeg
		{
			OFFSET 10.205400 -3.823500 0.155100
			CHANNELS 3 Xrotation Yrotation Zrotation
			JOINT LeftLeg
			{
				OFFSET 0.708757 -12.982077 0.567790
				CHANNELS 3 Xrotation Yrotation Zrotation
				JOINT LeftFoot
				{
					OFFSET -0.708756 -10.717838 -2.184338
					CHANNELS 3 Xrotation Yrotation Zrotation
					JOINT LeftToeBase
					{
						OFFSET 0.108149 -7.191104 7.560241
						CHANNELS 3 Xrotation Yrotation Zrotation
						JOINT LeftToe_End
						{
							OFFSET 0.070230 0.081724 4.490308
							CHANNELS 3 Xrotation Yrotation Zrotation
							End Site
							{
								OFFSET 0 0 0
							}
						}
					}
				}
			}
		}
	}
	JOINT RightUpLeg_virtual
	{
		OFFSET 0.000000 0.000000 0.000000
		CHANNELS 3 Xrotation Yrotation Zrotation
		JOINT RightUpLeg
		{
			OFFSET -10.205400 -3.823500 0.005500
			CHANNELS 3 Xrotation Yrotation Zrotation
			JOINT RightLeg
			{
				OFFSET -0.708756 -12.982134 0.610632
				CHANNELS 3 Xrotation Yrotation Zrotation
				JOINT RightFoot
				{
					OFFSET 0.708754 -10.717769 -1.945823
					CHANNELS 3 Xrotation Yrotation Zrotation
					JOINT RightToeBase
					{
						OFFSET -0.108140 -7.191069 7.372968
						CHANNELS 3 Xrotation Yrotation Zrotation
						JOINT RightToe_End
						{
							OFFSET -0.070227 0.081735 4.479403
							CHANNELS 3 Xrotation Yrotation Zrotation
							End Site
							{
								OFFSET 0 0 0
							}
						}
					}
				}
			}
		}
	}
	JOINT Spine_virtual
	{
		OFFSET 0.000000 0.000000 0.000000
		CHANNELS 3 Xrotation Yrotation Zrotation
		JOINT Spine
		{
			OFFSET 0.000000 6.876099 0.125700
			CHANNELS 3 Xrotation Yrotation Zrotation
			JOINT Spine1
			{
				OFFSET 0.000000 5.730043 0.104720
				CHANNELS 3 Xrotation Yrotation Zrotation
				JOINT Spine1_split
				{
					OFFSET 0.000000 5.730043 0.104720
					CHANNELS 3 Xrotation Yrotation Zrotation
					JOINT Spine2
					{
						OFFSET 0.000000 5.730043 0.104720
						CHANNELS 3 Xrotation Yrotation Zrotation
						JOINT Neck_virtual
						{
							OFFSET 0.000000 0.000000 0.000000
							CHANNELS 3 Xrotation Yrotation Zrotation
							JOINT Neck
							{
								OFFSET 0.000000 10.314075 0.188496
								CHANNELS 3 Xrotation Yrotation Zrotation
								JOINT Head
								{
									OFFSET 0.000000 7.643700 -2.377400
									CHANNELS 3 Xrotation Yrotation Zrotation
									JOINT HeadTop_End
									{
										OFFSET 0.000000 43.788605 -13.619600
										CHANNELS 3 Xrotation Yrotation Zrotation
										End Site
										{
											OFFSET 0 0 0
										}
									}
								}
							}
						}
						JOINT LeftShoulder_virtual
						{
							OFFSET 0.000000 0.000000 0.000000
							CHANNELS 3 Xrotation Yrotation Zrotation
							JOINT LeftShoulder
							{
								OFFSET 2.196100 4.412489 0.087492
								CHANNELS 3 Xrotation Yrotation Zrotation
								JOINT LeftShoulder_split
								{
									OFFSET 2.196100 4.412489 0.087492
									CHANNELS 3 Xrotation Yrotation Zrotation
									JOINT LeftArm
									{
										OFFSET 8.771219 -2.981674 -0.026999
										CHANNELS 3 Xrotation Yrotation Zrotation
										JOINT LeftForeArm
										{
											OFFSET 8.512804 0.000000 -0.000000
											CHANNELS 3 Xrotation Yrotation Zrotation
											JOINT LeftHand
											{
												OFFSET 18.484802 0.000000 -0.000000
												CHANNELS 3 Xrotation Yrotation Zrotation
												End Site
												{
													OFFSET 0 0 0
												}
											}
										}
									}
								}
							}
						}
						JOINT RightShoulder_virtual
						{
							OFFSET 0.000000 0.000000 0.000000
							CHANNELS 3 Xrotation Yrotation Zrotation
							JOINT RightShoulder
							{
								OFFSET -2.196100 4.412496 0.070690
								CHANNELS 3 Xrotation Yrotation Zrotation
								JOINT RightShoulder_split
								{
									OFFSET -2.196100 4.412496 0.070690
									CHANNELS 3 Xrotation Yrotation Zrotation
									JOINT RightArm
									{
										OFFSET -8.771282 -2.981682 -0.094208
										CHANNELS 3 Xrotation Yrotation Zrotation
										JOINT RightForeArm
										{
											OFFSET -8.494598 0.000000 0.000000
											CHANNELS 3 Xrotation Yrotation Zrotation
											JOINT RightHand
											{
												OFFSET -18.483803 0.000000 0.000001
												CHANNELS 3 Xrotation Yrotation Zrotation
												End Site
												{
													OFFSET 0 0 0
												}
											}
										}
									}
								}
							}
						}
					}
				}
			}
		}
	}
}
MOTION
Frames: 9
Frame Time: 0.03333333
1.701928 28.786446 -3.697933 0.000000 0.000000 0.000000 -9.816957 14.290296 1.844527 -19.082942 1.007483 15.454473 54.364184 -0.993717 0.701379 -25.593236 5.693972 -19.821848 0.527152 -2.599350 2.909703 0.000000 0.000000 0.000000 -9.002887 12.367736 1.577081 -8.613191 -12.136720 -12.453711 53.305262 11.535171 -4.388530 -36.650693 -26.289284 20.443400 4.691181 12.235856 -17.269599 0.000000 0.000000 0.000000 -7.048294 21.765612 0.704258 16.108397 -8.521861 1.243835 4.646078 -3.226850 0.293361 -0.004100 0.280749 0.092500 0.000000 0.000000 0.000000 4.816064 -0.863025 0.582214 -20.899107 9.850031 10.958059 -16.378285 -5.060498 13.658197 0.000000 0.000000 0.000000 4.774885 -2.338157 -0.744769 4.570586 2.546541 -8.244436 -2.066544 -3.054476 -1.327150 -18.408876 4.673555 -49.337390 112.616480 -48.590300 101.511890 0.000000 0.000000 0.000000 6.663669 -1.525915 0.302664 1.064950 0.103102 15.589545 -7.045852 -2.388941 4.148119 -9.754203 24.229075 65.080979 -164.243524 74.515424 165.569537 0.000000 0.000000 0.000000 
1.778089 28.776833 -3.687124 0.000000 0.000000 0.000000 -9.919949 14.723272 1.949062 -19.162825 0.840626 15.588937 55.271479 -1.267140 0.958845 -25.161722 5.654936 -20.327097 0.527494 -2.598271 2.954868 0.000000 0.000000 0.000000 -8.869318 12.900047 1.572539 -8.489955 -11.910515 -12.518621 53.492641 11.791370 -4.442094 -36.563936 -26.531735 20.913148 4.454325 12.288069 -17.299406 0.000000 0.000000 0.000000 -7.156452 22.279261 0.635557 15.947942 -8.514747 1.273320 4.713637 -3.251324 0.505968 0.063081 0.279176 0.103366 0.000000 0.000000 0.000000 4.908580 -0.807677 0.623409 -19.625644 10.494043 10.514127 -17.003613 -5.377528 13.956998 0.000000 0.000000 0.000000 5.007294 -2.403350 -0.381447 4.525147 2.074204 -7.946512 -1.813671 -2.182882 -1.541388 -20.126317 4.266680 -49.479980 111.091668 -50.263041 100.146822 0.000000 0.000000 0.000000 6.971871 -1.585980 0.540198 1.575667 0.118656 17.125902 -6.791997 -1.805990 6.891238 -7.638991 23.363285 62.903460 -163.151158 75.268043 165.580287 0.000000 0.000000 0.000000 
1.862613 28.760941 -3.705276 0.000000 0.000000 0.000000 -9.821531 15.852809 2.056574 -19.649921 -0.003436 15.425385 56.248169 -1.364763 1.313725 -24.744688 5.575598 -20.713365 0.337686 -2.590021 3.030921 0.000000 0.000000 0.000000 -8.597218 13.995908 1.599540 -7.817241 -12.664640 -12.407348 52.930886 11.812689 -4.295054 -37.561778 -27.012862 20.410267 5.465673 12.144214 -17.712777 0.000000 0.000000 0.000000 -7.380912 23.507787 0.703635 15.759386 -8.528059 1.157447 4.788659 -3.604631 1.081068 0.103963 0.242904 0.139570 0.000000 0.000000 0.000000 4.927806 -1.041555 1.052340 -17.939345 11.059046 10.014214 -16.816988 -5.972843 13.352368 0.000000 0.000000 0.000000 5.236254 -2.716310 0.417562 4.533278 0.895389 -7.744552 -2.023915 -1.390072 -2.685093 -20.396236 1.278648 -47.985986 105.804241 -52.096370 93.835891 0.000000 0.000000 0.000000 7.277568 -2.064394 1.129037 2.201836 -0.576451 19.515097 -7.443504 -0.478451 8.401789 -4.010880 23.642995 56.876157 -161.041066 74.261286 164.384868 0.000000 0.000000 0.000000 
1.940248 28.762796 -3.764677 0.000000 0.000000 0.000000 -9.482271 17.432371 2.104474 -20.469773 -1.395744 14.921754 56.893273 -1.210702 1.698470 -24.480303 5.530148 -20.928033 0.328515 -2.546145 2.927587 0.000000 0.000000 0.000000 -8.326891 15.430408 1.672055 -6.767261 -14.289104 -12.212292 51.746623 11.708497 -3.905633 -38.946196 -27.572442 19.403338 7.052626 11.909548 -18.402973 0.000000 0.000000 0.000000 -7.559075 25.182020 0.781979 15.592885 -8.595760 0.968506 4.858994 -4.203331 1.858372 0.111165 0.136723 0.159301 0.000000 0.000000 0.000000 4.809057 -1.471585 1.776396 -16.225345 11.296903 9.647268 -15.700867 -6.934774 12.047780 0.000000 0.000000 0.000000 5.510448 -3.183787 1.476983 4.602111 -0.730065 -7.765011 -1.938911 -1.157427 -3.820868 -18.948014 -3.922408 -44.850010 97.323673 -53.266576 83.127644 0.000000 0.000000 0.000000 7.452979 -2.800383 1.909902 2.926770 -1.779216 21.759190 -8.887336 1.200539 8.115639 -0.602864 23.948634 48.612902 -157.438251 72.639977 161.060642 0.000000 0.000000 0.000000 
2.016057 28.817698 -3.822092 0.000000 0.000000 0.000000 -8.996963 19.251059 2.100182 -21.411924 -3.109087 14.115369 56.841319 -0.771387 1.996266 -24.385649 5.446446 -20.849436 0.520649 -2.506422 2.598203 0.000000 0.000000 0.000000 -8.121072 17.122924 1.786198 -5.261309 -16.438085 -11.912491 49.912335 11.738482 -3.361426 -40.029201 -28.044617 18.544262 7.831902 11.788403 -19.162439 0.000000 0.000000 0.000000 -7.664965 27.149899 0.877254 15.492061 -8.806015 0.787287 4.867624 -4.898690 2.649929 0.178604 0.075797 0.064073 0.000000 0.000000 0.000000 4.641085 -1.971827 2.639965 -14.725669 10.994590 9.546180 -13.788054 -9.018279 10.297616 0.000000 0.000000 0.000000 5.712645 -3.658590 2.522745 4.656331 -2.409752 -8.170774 -1.632628 -1.451307 -4.367640 -16.029624 -10.061499 -40.429720 87.717012 -53.219509 70.407967 0.000000 0.000000 0.000000 7.434123 -3.573811 2.676378 3.674629 -3.320618 23.003696 -9.726206 2.347085 7.379150 -0.073752 23.286120 40.397799 -153.204094 70.127075 156.304071 0.000000 0.000000 0.000000 
2.110825 28.964251 -3.853157 0.000000 0.000000 0.000000 -8.472506 21.106271 2.055066 -22.371866 -4.981748 13.191103 56.059502 -0.387679 2.267202 -23.863259 5.165256 -21.154850 0.563911 -2.487979 2.258877 0.000000 0.000000 0.000000 -7.844627 18.874777 1.853655 -3.162699 -18.676934 -11.438521 47.374937 11.965975 -2.759434 -40.581986 -28.280228 17.943585 7.451945 11.833195 -19.784094 0.000000 0.000000 0.000000 -7.639205 29.206432 0.990665 15.460029 -9.208754 0.721082 4.729306 -5.476062 3.271454 0.204469 0.050254 -0.135060 0.000000 0.000000 0.000000 4.549343 -2.372643 3.434429 -13.519823 10.071765 9.675452 -11.339970 -12.949637 8.471777 0.000000 0.000000 0.000000 5.709599 -3.904678 3.298129 4.617878 -3.801432 -9.043509 -1.214128 -1.943012 -4.663826 -12.791487 -15.471903 -35.356174 79.629747 -52.181587 58.719211 0.000000 0.000000 0.000000 7.200787 -4.114354 3.237793 4.238792 -4.926048 22.448532 -10.031388 3.571210 7.164639 -4.785792 21.782641 34.447017 -150.044913 66.262370 151.989017 0.000000 0.000000 0.000000 
2.218347 29.215248 -3.804777 0.000000 0.000000 0.000000 -7.819078 22.900782 2.011488 -23.206625 -6.632824 12.245543 54.589320 -0.356797 2.525252 -22.669741 4.642151 -22.118377 0.251022 -2.495784 2.039955 0.000000 0.000000 0.000000 -7.392768 20.718564 1.855906 -0.605515 -20.738660 -10.826316 44.201603 12.215267 -2.113942 -40.822825 -28.176426 17.034488 6.782455 11.873534 -20.022517 0.000000 0.000000 0.000000 -7.376921 31.111177 1.115776 15.496808 -9.728573 0.866462 4.418263 -5.664663 3.610082 0.236907 0.016087 -0.260487 0.000000 0.000000 0.000000 4.488751 -2.423911 3.981740 -12.746111 8.617525 9.956789 -9.146231 -18.506083 6.799031 0.000000 0.000000 0.000000 5.437291 -3.793697 3.656632 4.447759 -4.890093 -10.344022 -0.751338 -3.228360 -4.552812 -10.205710 -18.829703 -30.899202 74.356083 -50.809890 49.675385 0.000000 0.000000 0.000000 6.713676 -4.263086 3.511008 4.586151 -6.301838 20.190463 -10.644381 4.596147 8.138020 -15.601433 19.578495 30.930016 -148.421445 61.070388 148.979444 0.000000 0.000000 0.000000 
2.332441 29.569111 -3.706038 0.000000 0.000000 0.000000 -7.054859 24.521926 2.035486 -23.558217 -7.640878 11.276693 52.197661 -0.454049 2.649341 -21.405678 4.053250 -23.111062 -0.088609 -2.517267 1.915267 0.000000 0.000000 0.000000 -6.674010 22.372474 1.813387 1.751940 -22.566839 -10.408947 40.601786 12.408249 -1.415877 -40.722602 -27.679333 15.681187 6.448331 11.728014 -19.748698 0.000000 0.000000 0.000000 -6.951073 32.846762 1.355059 15.718758 -10.255219 1.205056 3.940519 -5.284306 3.611306 0.208031 -0.028845 -0.216574 0.000000 0.000000 0.000000 4.472245 -1.993709 4.159923 -12.679474 6.966104 10.135859 -8.597616 -25.532231 4.916192 0.000000 0.000000 0.000000 4.785084 -3.228304 3.534748 4.087222 -5.732823 -12.055955 -0.101116 -4.938825 -4.295834 -9.200424 -19.933880 -28.588733 71.640796 -49.397198 43.158411 0.000000 0.000000 0.000000 5.984362 -3.916281 3.451187 4.560256 -7.036727 16.559686 -11.245614 5.319896 9.957974 -30.487690 17.490274 28.130522 -147.283317 55.751761 146.609683 0.000000 0.000000 0.000000 
2.463393 30.008841 -3.591259 0.000000 0.000000 0.000000 -6.225978 25.876332 2.201620 -23.325229 -7.928785 10.282735 48.875427 -0.530389 2.625281 -20.371968 3.602433 -23.764313 0.115015 -2.516120 1.840726 0.000000 0.000000 0.000000 -5.824094 23.547349 1.880000 3.191997 -24.295186 -10.631624 36.968775 12.688058 -0.669603 -39.850042 -26.873711 14.583557 6.174030 11.441879 -19.106324 0.000000 0.000000 0.000000 -6.286968 34.440488 1.747706 16.248574 -10.590374 1.600236 3.366104 -4.285654 3.327790 0.131584 -0.163167 -0.061096 0.000000 0.000000 0.000000 4.416323 -1.018588 3.958218 -13.768124 5.221908 10.061251 -10.771477 -33.037844 1.848437 0.000000 0.000000 0.000000 3.826926 -2.206960 3.027230 3.499933 -6.492835 -14.059075 0.539074 -5.931552 -3.757585 -10.648551 -19.401709 -28.970377 70.387592 -47.665664 38.097880 0.000000 0.000000 0.000000 5.170489 -3.005046 3.131894 4.228137 -6.512774 12.031610 -12.494007 5.462664 11.629192 -44.544052 17.674557 24.151045 -144.116677 52.978427 142.518823 0.000000 0.000000 0.000000 
